<svg width="48" height="48" viewBox="0 0 48 48" fill="none" xmlns="http://www.w3.org/2000/svg">
<path fill-rule="evenodd" clip-rule="evenodd" d="M24 0C10.7455 0 0 10.7455 0 24C0 37.2545 10.7455 48 24 48C37.2545 48 48 37.2545 48 24C48 10.7455 37.2545 0 24 0ZM34.4029 19.9418C34.5945 19.7229 34.7403 19.4678 34.8318 19.1916C34.9234 18.9155 34.9587 18.6238 34.9359 18.3338C34.913 18.0438 34.8324 17.7612 34.6987 17.5028C34.565 17.2444 34.3811 17.0154 34.1576 16.8291C33.9341 16.6429 33.6756 16.5032 33.3973 16.4183C33.119 16.3334 32.8266 16.3051 32.5372 16.3349C32.2478 16.3647 31.9673 16.4521 31.7122 16.5919C31.4571 16.7318 31.2325 16.9212 31.0516 17.1491L21.6698 28.4051L16.8153 23.5484C16.4038 23.1509 15.8526 22.931 15.2806 22.936C14.7085 22.941 14.1613 23.1704 13.7568 23.5749C13.3522 23.9795 13.1228 24.5267 13.1178 25.0988C13.1128 25.6708 13.3327 26.222 13.7302 26.6335L20.2756 33.1789C20.49 33.3932 20.7467 33.5604 21.0293 33.67C21.3119 33.7795 21.6142 33.829 21.917 33.8152C22.2197 33.8015 22.5163 33.7248 22.7878 33.5901C23.0593 33.4553 23.2997 33.2655 23.4938 33.0327L34.4029 19.9418Z" fill="#3A9EAA"/>
</svg>
