<svg width="37" height="33" viewBox="0 0 37 33" fill="none" xmlns="http://www.w3.org/2000/svg">
<path d="M36.9995 10.7669V10.6003V10.5169C36.9995 10.4336 36.9995 10.3503 36.9133 10.2669V10.1836C36.9133 10.1003 36.827 10.1003 36.827 10.0169L36.7408 9.93359L26.3914 0.35059C26.2189 0.183921 26.0464 0.100586 25.7877 0.100586H11.2118C10.9531 0.100586 10.7806 0.183921 10.6081 0.35059L0.258734 9.85073L0.17249 9.93407C0.17249 10.0174 0.0862448 10.0174 0.0862448 10.1007V10.1841C0.0862448 10.2674 0.0862448 10.3507 0 10.4341V10.5174V10.6841C0 10.7674 0.0862448 10.7674 0.0862448 10.8507C0.0862448 10.8507 0.0862448 10.9341 0.17249 10.9341L17.8532 31.8506C17.9394 31.9339 18.0257 31.9339 18.1119 32.0173H18.1981C18.2844 32.1006 18.3706 32.1006 18.5431 32.1006C18.7156 32.1006 18.8019 32.1006 18.8881 32.0173H18.9743C19.0606 31.9339 19.1468 31.9339 19.2331 31.8506L36.9138 10.9341C36.9138 10.9341 36.9138 10.8507 37 10.8507C36.9138 10.8507 36.9138 10.7674 37 10.7674L36.9995 10.7669ZM10.7811 11.2669L16.2145 27.4338L2.58784 11.2669H10.7811ZM12.5922 11.2669H24.2348L18.4564 28.6843L12.5922 11.2669ZM26.1332 11.2669H34.4127L20.7002 27.4338L26.1332 11.2669ZM33.9814 9.60025H26.0469L22.6834 1.7668H25.4432L33.9814 9.60025ZM20.7855 1.7668L24.149 9.60025H12.7647L16.1283 1.7668H20.7855ZM11.471 1.7668H14.2309L10.8673 9.60025H2.93281L11.471 1.7668Z" fill="black"/>
</svg>
